<svg xmlns="http://www.w3.org/2000/svg" xmlns:xlink="http://www.w3.org/1999/xlink" width="168" height="37" viewBox="0 0 168 37">
  <defs>
    <clipPath id="clip-Artboard_9">
      <rect width="168" height="37"/>
    </clipPath>
  </defs>
  <g id="Artboard_9" data-name="Artboard – 9" clip-path="url(#clip-Artboard_9)">
    <g id="Group_6" data-name="Group 6" transform="translate(-1206.584 -739.5)">
      <path id="Path_14" data-name="Path 14" d="M2.684-3.773a2.94,2.94,0,0,0,.505,1.55,3.176,3.176,0,0,0,2.65.977,3.909,3.909,0,0,0,1.977-.489,1.622,1.622,0,0,0,.854-1.51,1.292,1.292,0,0,0-.685-1.179A8.145,8.145,0,0,0,6.255-5L4.649-5.4a7.834,7.834,0,0,1-2.269-.854,2.551,2.551,0,0,1-1.3-2.269,3.466,3.466,0,0,1,1.23-2.763,4.906,4.906,0,0,1,3.307-1.056,4.591,4.591,0,0,1,3.919,1.595,3.461,3.461,0,0,1,.73,2.179H8.355a2.339,2.339,0,0,0-.483-1.247,3.08,3.08,0,0,0-2.415-.8,2.886,2.886,0,0,0-1.735.438,1.373,1.373,0,0,0-.59,1.157A1.424,1.424,0,0,0,3.908-7.76a4.657,4.657,0,0,0,1.325.494L6.57-6.94A10.333,10.333,0,0,1,9.49-5.918a2.706,2.706,0,0,1,1.179,2.437A3.714,3.714,0,0,1,9.45-.708,5.187,5.187,0,0,1,5.739.46a4.98,4.98,0,0,1-3.8-1.219,4.608,4.608,0,0,1-1.2-3.015Zm10.7-11.612h2.044v3.358h1.92v1.651h-1.92v7.85a.849.849,0,0,0,.427.842,1.814,1.814,0,0,0,.786.124q.146,0,.314-.006t.393-.028V0a4.513,4.513,0,0,1-.724.146,6.887,6.887,0,0,1-.814.045,2.194,2.194,0,0,1-1.92-.724,3.219,3.219,0,0,1-.505-1.881v-7.962H11.758v-1.651h1.628ZM24.381-12.3a5.486,5.486,0,0,1,2.482.6,4.577,4.577,0,0,1,1.831,1.555A5.366,5.366,0,0,1,29.5-8.019a13.887,13.887,0,0,1,.18,2.65H20.866a5.144,5.144,0,0,0,.865,2.937,2.9,2.9,0,0,0,2.5,1.106A3.238,3.238,0,0,0,26.762-2.37a3.521,3.521,0,0,0,.764-1.4h1.988A4.186,4.186,0,0,1,28.991-2.3,5.253,5.253,0,0,1,28-.966,4.711,4.711,0,0,1,25.718.247a6.926,6.926,0,0,1-1.651.18A5.065,5.065,0,0,1,20.26-1.207,6.358,6.358,0,0,1,18.7-5.784a6.913,6.913,0,0,1,1.572-4.706A5.187,5.187,0,0,1,24.381-12.3ZM27.6-6.974a5.237,5.237,0,0,0-.573-2.1,2.936,2.936,0,0,0-2.774-1.46,3.075,3.075,0,0,0-2.336,1.005,3.8,3.8,0,0,0-1,2.555ZM33.714-3.2a1.665,1.665,0,0,0,.64,1.381,2.373,2.373,0,0,0,1.516.505,4.61,4.61,0,0,0,2.066-.494,2.781,2.781,0,0,0,1.685-2.684V-6.121a3.458,3.458,0,0,1-.955.393,8.134,8.134,0,0,1-1.146.225L36.3-5.346a4.682,4.682,0,0,0-1.651.46A1.794,1.794,0,0,0,33.714-3.2Zm4.9-4.088a1.1,1.1,0,0,0,.932-.584,1.777,1.777,0,0,0,.135-.775,1.642,1.642,0,0,0-.736-1.5,3.947,3.947,0,0,0-2.106-.466,2.676,2.676,0,0,0-2.246.854,2.808,2.808,0,0,0-.483,1.4H32.22a3.473,3.473,0,0,1,1.443-3.094,5.925,5.925,0,0,1,3.218-.87,6.547,6.547,0,0,1,3.448.809A2.743,2.743,0,0,1,41.643-9v6.929a.887.887,0,0,0,.129.505.623.623,0,0,0,.545.191q.135,0,.3-.017t.359-.051V.056a5.63,5.63,0,0,1-.719.168,5.253,5.253,0,0,1-.674.034A1.663,1.663,0,0,1,40.07-.483a2.86,2.86,0,0,1-.348-1.112,5.143,5.143,0,0,1-1.774,1.4A5.489,5.489,0,0,1,35.4.4,3.791,3.791,0,0,1,32.664-.612,3.376,3.376,0,0,1,31.6-3.156,3.276,3.276,0,0,1,32.647-5.75a4.969,4.969,0,0,1,2.74-1.134Zm6.345-4.739h2v1.707a6.719,6.719,0,0,1,1.3-1.292,3.918,3.918,0,0,1,2.269-.685,3.57,3.57,0,0,1,2.313.708,3.7,3.7,0,0,1,.9,1.19,4.369,4.369,0,0,1,1.583-1.432,4.417,4.417,0,0,1,2.044-.466,3.342,3.342,0,0,1,3.3,1.752,5.727,5.727,0,0,1,.472,2.538V0h-2.1V-8.355a1.946,1.946,0,0,0-.6-1.651,2.378,2.378,0,0,0-1.466-.449,2.909,2.909,0,0,0-2.05.8A3.5,3.5,0,0,0,54.063-7V0H52.008V-7.85a4.079,4.079,0,0,0-.292-1.786A1.781,1.781,0,0,0,50-10.478a2.965,2.965,0,0,0-2.083.887,4.348,4.348,0,0,0-.938,3.212V0H44.956ZM69.191-1.359a2.884,2.884,0,0,0,2.353-1.185,5.638,5.638,0,0,0,.938-3.543,6.614,6.614,0,0,0-.416-2.471,2.868,2.868,0,0,0-2.875-1.988,2.867,2.867,0,0,0-2.875,2.1A8.323,8.323,0,0,0,65.9-5.593a6.047,6.047,0,0,0,.416,2.37A2.867,2.867,0,0,0,69.191-1.359ZM63.958-11.972h1.965v1.595a4.907,4.907,0,0,1,1.325-1.269,4.265,4.265,0,0,1,2.4-.674,4.519,4.519,0,0,1,3.47,1.567,6.419,6.419,0,0,1,1.426,4.475q0,3.931-2.055,5.615A4.643,4.643,0,0,1,69.46.4a4.116,4.116,0,0,1-2.28-.6,5.253,5.253,0,0,1-1.2-1.157V4.8H63.958ZM81.915-12.3a5.486,5.486,0,0,1,2.482.6,4.577,4.577,0,0,1,1.831,1.555,5.366,5.366,0,0,1,.809,2.123,13.887,13.887,0,0,1,.18,2.65H78.4a5.144,5.144,0,0,0,.865,2.937,2.9,2.9,0,0,0,2.5,1.106A3.238,3.238,0,0,0,84.3-2.37a3.521,3.521,0,0,0,.764-1.4h1.988A4.186,4.186,0,0,1,86.525-2.3a5.253,5.253,0,0,1-.994,1.331A4.711,4.711,0,0,1,83.251.247,6.926,6.926,0,0,1,81.6.427a5.065,5.065,0,0,1-3.807-1.634,6.358,6.358,0,0,1-1.561-4.576A6.913,6.913,0,0,1,77.8-10.489,5.187,5.187,0,0,1,81.915-12.3Zm3.223,5.323a5.237,5.237,0,0,0-.573-2.1,2.936,2.936,0,0,0-2.774-1.46,3.075,3.075,0,0,0-2.336,1.005,3.8,3.8,0,0,0-1,2.555ZM94.707-12.3a5.486,5.486,0,0,1,2.482.6,4.577,4.577,0,0,1,1.831,1.555,5.366,5.366,0,0,1,.809,2.123,13.887,13.887,0,0,1,.18,2.65H91.191a5.144,5.144,0,0,0,.865,2.937,2.9,2.9,0,0,0,2.5,1.106A3.238,3.238,0,0,0,97.087-2.37a3.521,3.521,0,0,0,.764-1.4h1.988A4.186,4.186,0,0,1,99.317-2.3a5.253,5.253,0,0,1-.994,1.331A4.711,4.711,0,0,1,96.043.247a6.926,6.926,0,0,1-1.651.18,5.065,5.065,0,0,1-3.807-1.634,6.358,6.358,0,0,1-1.561-4.576A6.913,6.913,0,0,1,90.6-10.489,5.187,5.187,0,0,1,94.707-12.3ZM97.93-6.974a5.237,5.237,0,0,0-.573-2.1,2.936,2.936,0,0,0-2.774-1.46,3.075,3.075,0,0,0-2.336,1.005,3.8,3.8,0,0,0-1,2.555Zm4.515-9.523h1.943v9.58l5.188-5.11h2.583l-4.6,4.5L112.417,0h-2.583l-3.751-6.064-1.7,1.55V0h-1.943Z" transform="translate(1251.139 765)" fill="#fff"/>
      <g id="whale-tail-svgrepo-com" transform="translate(1217.029 750.348)">
        <path id="Path_12" data-name="Path 12" d="M0,0A11.473,11.473,0,0,0,6.77,4.483c4.759,1.2,8.666,8.076,6.921,12.285,0,0-1.8-1.631-7.151-1.894S.678,9.315.678,9.315Z" transform="translate(14.114 16.768) rotate(180)" fill="#2bbae6" fill-rule="evenodd"/>
        <path id="Path_13" data-name="Path 13" d="M32,26.768a11.473,11.473,0,0,1,6.77-4.483c4.759-1.2,8.666-8.076,6.921-12.285,0,0-1.8,1.631-7.151,1.894s-5.862,5.559-5.862,5.559Z" transform="translate(-17.939 -10)" fill="#21a6cf" fill-rule="evenodd"/>
      </g>
    </g>
  </g>
</svg>
